<?xml version="1.0" encoding="utf-8"?>
<!-- Generator: Adobe Illustrator 22.1.0, SVG Export Plug-In . SVG Version: 6.00 Build 0)  -->
<svg version="1.1" id="Режим_изоляции"
     xmlns="http://www.w3.org/2000/svg" xmlns:xlink="http://www.w3.org/1999/xlink" x="0px" y="0px" viewBox="0 0 196 80"
     style="enable-background:new 0 0 196 80;" xml:space="preserve">
<style type="text/css">
	.st0{fill:#FFFFFF;fill-opacity:0;}
	.st1{fill:#A05AE7;}
</style>
    <rect class="st0" width="196" height="80"/>
    <title>Icon</title>
    <path class="st1" d="M64.5,34.3H33.1v-1.6h31.4V34.3z M64.5,50H33.1v1.6h31.4V50z M40.1,49V35.5h-4.2V49H40.1z M47.3,49V35.5h-4.2
	V49H47.3z M54.5,49V35.5h-4.2V49H54.5z M61.8,49V35.5h-4.2V49H61.8z M31.3,56.1h35.1v-2.8H31.3V56.1z M64.5,31H33.1l15.7-7L64.5,31z
	 M50.5,27.9c0-0.1,0-0.1,0-0.2c0-0.9-0.8-1.7-1.7-1.7c-0.9,0-1.7,0.8-1.7,1.7c0,0.9,0.8,1.7,1.7,1.7C49.7,29.4,50.5,28.8,50.5,27.9z
	 M104.9,43.5l-4.3-7.6h-2.9v12.2h2.9v-7.6l4.3,7.6h2.9V35.9h-2.9V43.5z M140,48.1h2.9V35.9H140V48.1z M116.3,35.9l-2.6,3.8l-1,1.5
	v-5.4h-2.9v12.2h2.9v-3.2l1.2-1.3l2.6,4.5h3.5l-4.1-6.8l4.1-5.4H116.3z M134.3,43.6l-1.7-7.6h-2.5l-1.7,7.6l-1.4-7.6h-2.9l2.6,12.2
	h3l1.6-6.9l1.6,6.9h3l2.6-12.2h-2.9L134.3,43.6z M152.2,43.1l2.5,4.9v0.1h-3.1l-2.1-4.3h-1.6v4.3h-2.9V35.9h4.8c1.4,0,2.6,0.3,3.4,1
	c0.8,0.6,1.2,1.5,1.2,2.7c0,0.8-0.2,1.5-0.5,2.1C153.5,42.3,152.9,42.7,152.2,43.1z M151.4,39.9c0-0.5-0.1-0.9-0.4-1.2
	s-0.7-0.4-1.3-0.4h-1.9v3.4h1.9c0.6,0,1-0.1,1.3-0.4C151.2,40.8,151.4,40.4,151.4,39.9z M92.3,35.9l4.5,12.2h-3.1l-0.7-2.3h-4
	l-0.7,2.3h-3.1l4.5-12.2H92.3z M92.2,43.6l-1.3-4.2l-1.3,4.2H92.2z M164.5,38.2v-2.3h-8.4v12.2h8.4v-2.3H159v-2.9h4.6v-2.2H159v-2.6
	H164.5z M84.3,42.8c0.3,0.5,0.5,1,0.5,1.7c0,1.2-0.4,2.1-1.1,2.7c-0.8,0.6-1.9,0.9-3.4,0.9h-4.9V35.9h4.4c1.6,0,2.8,0.3,3.6,0.9
	c0.8,0.6,1.2,1.4,1.2,2.5c0,0.6-0.1,1.2-0.4,1.6c-0.3,0.4-0.7,0.8-1.3,1C83.4,42.1,83.9,42.4,84.3,42.8z M78.3,41h1.5
	c0.6,0,1.1-0.1,1.4-0.4c0.3-0.2,0.4-0.6,0.4-1c0-0.5-0.1-0.9-0.4-1.1c-0.3-0.2-0.8-0.3-1.4-0.3h-1.4V41z M81.8,44.5
	c0-1-0.5-1.5-1.5-1.5h-2.1v2.9h1.9c0.5,0,0.9-0.1,1.2-0.4S81.8,44.9,81.8,44.5z"/>
</svg>

